<svg xmlns="http://www.w3.org/2000/svg" xmlns:xlink="http://www.w3.org/1999/xlink" version="1.1" id="Layer_1" x="0px" y="0px" width="100px" height="100px" viewBox="0 0 100 100" enable-background="new 0 0 100 100" xml:space="preserve">
<path fill="#999" opacity="0.7" d="M45.556,17c0,2.455,1.99,4.444,4.444,4.444c2.455,0,4.445-1.99,4.445-4.444s-1.99-4.444-4.445-4.444  C47.546,12.556,45.556,14.545,45.556,17z M48.549,19.54c-0.601,0-1.089-0.488-1.089-1.089c0-0.601,0.488-1.088,1.089-1.088  c0.602,0,1.089,0.487,1.089,1.088C49.638,19.052,49.15,19.54,48.549,19.54z M48.549,16.637c-0.601,0-1.089-0.487-1.089-1.088  c0-0.601,0.488-1.089,1.089-1.089c0.602,0,1.089,0.488,1.089,1.089C49.638,16.15,49.15,16.637,48.549,16.637z M51.451,14.46  c0.601,0,1.089,0.488,1.089,1.089c0,0.601-0.488,1.088-1.089,1.088s-1.088-0.487-1.088-1.088  C50.363,14.948,50.851,14.46,51.451,14.46z M51.451,17.363c0.601,0,1.089,0.487,1.089,1.088c0,0.601-0.488,1.089-1.089,1.089  s-1.088-0.488-1.088-1.089C50.363,17.85,50.851,17.363,51.451,17.363z"/>
<path fill="#999" opacity="0.7" d="M25,13v87h50V13L50,0L25,13z M66,76L50,65.333L34,76V56.465l16-10.667l16,10.667V76z M57,17c0,3.866-3.135,7-7,7  c-3.866,0-7-3.134-7-7s3.134-7,7-7C53.865,10,57,13.134,57,17z"/>
<polygon fill="#999" opacity="0.7" points="36,66.535 36,71.131 50,61.798 64,71.131 64,66.535 50,57.202 "/>
</svg>
