<?xml version="1.0" encoding="utf-8"?>
<!-- Generator: Adobe Illustrator 16.0.2, SVG Export Plug-In . SVG Version: 6.00 Build 0)  -->
<!DOCTYPE svg PUBLIC "-//W3C//DTD SVG 1.1//EN" "http://www.w3.org/Graphics/SVG/1.1/DTD/svg11.dtd">
<svg version="1.1" id="圖層_1" xmlns="http://www.w3.org/2000/svg" xmlns:xlink="http://www.w3.org/1999/xlink" x="0px" y="0px"
	 width="200px" height="200px" viewBox="0 0 200 200" enable-background="new 0 0 200 200" xml:space="preserve">
<path d="M100.042,9.966c-49.543,0-89.706,40.069-89.706,89.496c0,49.428,40.163,89.496,89.706,89.496
	c49.544,0,89.706-40.068,89.706-89.496C189.748,50.035,149.586,9.966,100.042,9.966z M100.042,178.874
	c-43.974,0-79.622-35.507-79.622-79.307c0-43.799,35.648-79.306,79.622-79.306c43.974,0,79.623,35.507,79.623,79.306
	C179.664,143.367,144.016,178.874,100.042,178.874z"/>
<path d="M79.454,46.941c-6.033,0-10.924,11.878-10.924,26.529S73.42,100,79.454,100s10.924-11.878,10.924-26.529
	S85.487,46.941,79.454,46.941z M79.559,72.362c-3.307,0-5.987-4.526-5.987-10.109s2.681-10.109,5.987-10.109
	s5.988,4.526,5.988,10.109S82.865,72.362,79.559,72.362z"/>
<path d="M120.252,47.412c-6.033,0-10.924,11.878-10.924,26.529s4.891,26.529,10.924,26.529s10.924-11.878,10.924-26.529
	S126.285,47.412,120.252,47.412z M120.357,72.833c-3.307,0-5.988-4.526-5.988-10.109s2.682-10.109,5.988-10.109
	s5.988,4.526,5.988,10.109S123.664,72.833,120.357,72.833z"/>
<ellipse cx="59.286" cy="96.466" rx="10.504" ry="5.357"/>
<ellipse cx="141.042" cy="96.525" rx="10.504" ry="5.357"/>
<path d="M88.908,109.756c8.193,8.824,15.125,8.403,22.059,0H88.908z"/>
<ellipse cx="110.966" cy="109.861" rx="2.29" ry="2.206"/>
<ellipse cx="88.908" cy="109.861" rx="2.29" ry="2.206"/>
</svg>
